<svg width="351" height="17" viewBox="0 0 351 17" fill="none" xmlns="http://www.w3.org/2000/svg">
<line x1="0.00431018" y1="9.50002" x2="139.999" y2="10.7069" stroke="#EEEEEE" stroke-opacity="0.2"/>
<line x1="210.004" y1="9.50002" x2="349.999" y2="10.7069" stroke="#EEEEEE" stroke-opacity="0.2"/>
<path d="M171.84 8.124C171.84 9.752 171.561 11.1747 171.004 12.392C170.461 13.5947 169.655 14.5333 168.584 15.208C167.513 15.8827 166.186 16.22 164.602 16.22C162.974 16.22 161.617 15.8827 160.532 15.208C159.461 14.5333 158.662 13.5873 158.134 12.37C157.606 11.1527 157.342 9.73 157.342 8.102C157.342 6.48867 157.606 5.08067 158.134 3.878C158.662 2.67533 159.461 1.73667 160.532 1.062C161.617 0.387333 162.981 0.0499995 164.624 0.0499995C166.193 0.0499995 167.513 0.387333 168.584 1.062C169.655 1.722 170.461 2.66067 171.004 3.878C171.561 5.08067 171.84 6.496 171.84 8.124ZM159.432 8.124C159.432 10.104 159.85 11.666 160.686 12.81C161.522 13.9393 162.827 14.504 164.602 14.504C166.391 14.504 167.697 13.9393 168.518 12.81C169.339 11.666 169.75 10.104 169.75 8.124C169.75 6.144 169.339 4.59667 168.518 3.482C167.697 2.35267 166.399 1.788 164.624 1.788C162.849 1.788 161.537 2.35267 160.686 3.482C159.85 4.59667 159.432 6.144 159.432 8.124ZM179.655 0.291999C181.606 0.291999 183.044 0.665999 183.968 1.414C184.906 2.14733 185.376 3.262 185.376 4.758C185.376 5.594 185.222 6.29067 184.914 6.848C184.606 7.40533 184.21 7.85267 183.726 8.19C183.256 8.51267 182.758 8.76933 182.23 8.96L186.542 16H184.232L180.426 9.51H177.302V16H175.322V0.291999H179.655ZM179.546 2.008H177.302V7.838H179.655C180.932 7.838 181.863 7.58867 182.45 7.09C183.036 6.57667 183.33 5.82867 183.33 4.846C183.33 3.81933 183.022 3.09333 182.406 2.668C181.79 2.228 180.836 2.008 179.546 2.008Z" fill="#EEEEEE"/>
</svg>

